<svg width="117" height="137" viewBox="0 0 117 137" fill="none" xmlns="http://www.w3.org/2000/svg">
<g clip-path="url(#clip0_5_306)">
<path d="M44.2507 55.5344C40.6411 49.0792 37.3905 43.012 35.1921 38.3866C24.6245 16.155 37.8426 0.265074 37.9615 1.65605e-06C37.9615 1.65605e-06 47.1588 15.3941 56.9044 32.5984C54.1402 37.5598 51.3851 42.563 48.7956 47.3566C47.3057 50.1141 45.7775 52.8546 44.2503 55.5344L44.2507 55.5344Z" fill="#27538C"/>
<path d="M71.8006 59.5297C75.717 66.5431 79.4241 72.9422 82.1678 77.6128C83.7816 76.9673 85.5308 76.6375 87.3912 76.6375C94.2068 76.6375 102.061 81.3865 105.661 87.6835L113.318 102.748L113.425 102.971C119.2 115.587 115.862 128.083 105.309 133.359C101.8 135.115 98.1266 136.004 94.3917 136.004L94.3907 136.004C86.4778 136.004 79.0487 131.9 74.5179 125.026L66.7221 109.751C63.7746 104.481 63.1625 97.2107 65.2726 91.3939C63.6735 88.7558 61.4984 85.1499 59.0139 80.98C62.9882 74.3768 67.5057 66.8219 71.8006 59.5297ZM77.4024 103.839L84.8865 118.569C87.1603 121.85 90.6911 123.798 94.3911 123.798C96.2135 123.798 98.0509 123.342 99.85 122.442C104.91 119.912 104.766 113.465 102.373 108.156L95.0003 93.6336C93.54 91.2007 89.8143 88.8445 87.3908 88.8445C87.148 88.8445 86.8137 88.8712 86.5969 88.9938L77.6062 94.1357C76.1365 94.9758 75.5015 100.514 77.4024 103.839Z" fill="#27538C"/>
<path d="M2.80913 102.971L10.4272 87.95L10.5717 87.6832C14.172 81.3855 22.0271 76.6378 28.8424 76.6378C29.7304 76.6378 30.5822 76.7389 31.4172 76.8868C32.3317 77.0488 33.2225 77.2762 34.0657 77.6132C37.0478 72.5357 41.169 65.4164 45.4598 57.6869C46.7705 55.3265 48.0959 52.9111 49.4097 50.4789C52.1692 45.3709 55.152 40.0003 58.1169 34.7437C68.2979 16.6944 78.2713 6.00003e-07 78.2713 6.00003e-07C78.3908 0.265073 91.609 16.155 81.0414 38.3862C78.5997 43.5236 74.8628 50.4361 70.7738 57.6865C66.5868 65.1109 62.0364 72.8785 58.1163 79.4725C55.2695 84.2629 52.7638 88.4195 50.9767 91.3678C51.2013 91.9911 51.3965 92.6394 51.5603 93.311C51.8017 94.3025 52 95.3265 52.1048 96.4128C52.5531 101.069 51.5846 106.04 49.5115 109.75L42.0609 124.43L41.715 125.026C37.1841 131.9 29.7558 136.005 21.8418 136.005C18.1073 136.005 14.4333 135.115 10.9238 133.359C0.369884 128.084 -2.96633 115.587 2.80913 102.971ZM61.7429 56.7892C61.7429 54.4392 59.8383 52.5354 57.4888 52.5354C55.1393 52.5354 53.2347 54.4392 53.2347 56.7892C53.2347 59.1393 55.139 61.0427 57.4888 61.0427C59.8387 61.0427 61.7429 59.1379 61.7429 56.7892ZM16.3832 122.442C18.1833 123.342 20.0197 123.798 21.8422 123.798C25.5428 123.798 29.0725 121.849 31.347 118.569L38.687 104.106L38.8319 103.838C39.7148 102.294 40.1662 99.7807 39.9542 97.5827C39.8652 96.6621 39.6775 95.9412 39.461 95.3902C39.186 94.6905 38.8647 94.2703 38.6274 94.1354L29.6363 88.9942C29.5791 88.962 29.502 88.9507 29.4321 88.9305C29.2376 88.873 29.0208 88.8442 28.842 88.8442C26.4189 88.8442 22.6932 91.1994 21.2322 93.6333L13.861 108.157C11.468 113.464 11.3225 119.911 16.3832 122.442Z" fill="#73A0DA"/>
</g>
<defs>
<clipPath id="clip0_5_306">
<rect width="116.233" height="136.005" fill="white" transform="matrix(-1 8.74228e-08 8.74228e-08 1 116.233 0)"/>
</clipPath>
</defs>
</svg>
