<svg width="175" height="136" viewBox="0 0 175 136" fill="none" xmlns="http://www.w3.org/2000/svg">
<g clip-path="url(#clip0_4_249)">
<path d="M104.322 70.3405C105.691 66.3307 106.582 62.1223 106.947 57.7844L98.2454 53.5911C98.2563 52.1884 98.2042 50.7748 98.0784 49.3525C98.0437 48.8605 97.9765 48.3792 97.9201 47.8915L106.105 42.7443C105.255 38.469 103.902 34.3836 102.102 30.5659L92.433 31.2651C91.4895 29.599 90.4355 27.9977 89.2904 26.4805L93.7907 17.9644C90.9473 14.7466 87.7201 11.8763 84.1915 9.41602L76.1755 14.8243C74.5337 13.8618 72.8268 12.9964 71.0571 12.2389L70.6775 2.62648C66.65 1.26469 62.4165 0.375535 58.0637 0.0043335L53.8475 8.67146C52.4378 8.65851 51.0259 8.71462 49.5901 8.83547C49.0934 8.87864 48.6054 8.94122 48.1196 8.99949L42.9557 0.839537C38.6527 1.69416 34.5493 3.04085 30.7083 4.82995L31.4132 14.451C29.741 15.3919 28.1296 16.4365 26.6093 17.5803L18.0446 13.1C14.8065 15.9336 11.922 19.1428 9.45823 22.6584L14.8976 30.6306C13.9238 32.2665 13.0476 33.9628 12.2929 35.7195L2.62861 36.0972C1.25792 40.107 0.370868 44.3111 0 48.6533L8.70565 52.8466C8.69697 54.2515 8.74252 55.663 8.86614 57.0852C8.90952 57.5772 8.97241 58.0564 9.03748 58.5463L0.841503 63.6913C1.70252 67.9666 3.05153 72.0519 4.84948 75.8697L14.5138 75.1726C15.4615 76.8387 16.5112 78.4336 17.6564 79.9551L13.1539 88.469C15.9972 91.6976 19.2309 94.5657 22.7574 97.0196L30.7691 91.6112C32.4152 92.5846 34.1242 93.4521 35.8875 94.2032L36.2692 103.818C40.2967 105.175 44.5194 106.067 48.8766 106.433L53.1036 97.7706C54.509 97.7792 55.9317 97.7317 57.361 97.6087C57.8511 97.5699 58.3391 97.5008 58.8206 97.4404L63.9889 105.6C68.2962 104.744 72.3952 103.401 76.2384 101.614L75.54 91.9911C77.2057 91.0436 78.8128 90.0013 80.344 88.8618L88.9043 93.3399C92.138 90.5063 95.0204 87.2993 97.4885 83.7836L92.06 75.8093C93.0251 74.1712 93.8948 72.4706 94.6604 70.7139L104.32 70.3384L104.322 70.3405ZM53.4766 84.6188C36.074 84.6188 21.9203 70.5326 21.9203 53.2178C21.9203 35.903 36.074 21.8189 53.4766 21.8189C70.8792 21.8189 85.0308 35.9051 85.0308 53.2199C85.0308 70.5348 70.8749 84.621 53.4766 84.621V84.6188Z" fill="#73A0DA"/>
<path d="M24.1737 53.2178C24.1737 69.2938 37.3146 82.3743 53.4766 82.3743C69.6387 82.3743 82.7752 69.2938 82.7752 53.2178C82.7752 37.1417 69.6343 24.059 53.4766 24.059C37.3189 24.059 24.1737 37.1417 24.1737 53.2178ZM75.5249 51.3013C76.5832 63.4258 67.574 74.1086 55.396 75.1618C43.2181 76.2215 32.4781 67.2457 31.4154 55.132C30.3613 43.0119 39.3706 32.3269 51.5485 31.2759C63.733 30.2162 74.4708 39.1898 75.5249 51.3035V51.3013Z" fill="#73A0DA"/>
<path d="M109.341 95.1225C109.053 108.9 120.081 120.345 133.925 120.632C147.77 120.921 159.27 109.945 159.56 96.1714C159.853 82.3938 148.827 70.9491 134.974 70.6621C121.129 70.3729 109.63 81.3471 109.341 95.1225ZM147.679 87.4697C151.987 94.7168 149.575 104.07 142.292 108.358C134.914 112.698 125.382 110.18 121.144 102.726C117.171 95.7246 119.552 86.505 126.425 82.2729C133.743 77.7645 143.316 80.145 147.679 87.4697Z" fill="#73A0DA"/>
<path d="M174.807 99.6093C175.091 96.7023 175.065 93.7737 174.718 90.8429L167.886 89.2178C167.526 87.4352 167.021 85.659 166.381 83.9153L171.389 78.999C170.788 77.676 170.107 76.3725 169.348 75.0992C168.598 73.8302 167.778 72.6173 166.899 71.4519L160.159 73.4569C158.933 72.0498 157.615 70.7592 156.207 69.5938L158.072 62.8517C155.661 61.136 153.091 59.7008 150.395 58.5484L145.554 63.6416C143.81 63.0417 142.021 62.5841 140.208 62.269L138.418 55.4838C135.504 55.2033 132.556 55.2335 129.626 55.5917L127.978 62.3877C126.184 62.733 124.41 63.2359 122.662 63.8833L117.717 58.9045C116.398 59.498 115.078 60.1648 113.8 60.9245C112.523 61.6734 111.302 62.4913 110.135 63.3546L112.141 70.0729C110.733 71.2944 109.434 72.6044 108.263 74.0029L101.488 72.1512C99.7614 74.5424 98.3213 77.102 97.1653 79.7781L102.279 84.5994C101.676 86.3367 101.23 88.1172 100.911 89.9214L94.1008 91.6997C93.8123 94.6002 93.8427 97.5353 94.1919 100.46L101.035 102.078C101.384 103.869 101.885 105.637 102.524 107.387L97.521 112.301C98.1196 113.624 98.792 114.924 99.5532 116.188C100.312 117.466 101.13 118.685 102.002 119.842L108.751 117.843C109.972 119.244 111.302 120.535 112.701 121.698L110.844 128.449C113.251 130.16 115.817 131.604 118.502 132.739L123.354 127.654C125.102 128.261 126.876 128.712 128.704 129.021L130.487 135.804C133.398 136.078 136.352 136.06 139.29 135.711L140.917 128.906C142.715 128.561 144.493 128.058 146.244 127.413L151.206 132.394C152.524 131.805 153.83 131.129 155.108 130.374C156.389 129.621 157.6 128.805 158.771 127.933L156.765 121.225C158.174 120.006 159.471 118.689 160.64 117.295L167.42 119.145C169.144 116.749 170.593 114.19 171.734 111.516L166.62 106.688C167.218 104.962 167.685 103.185 167.997 101.375L174.807 99.6028V99.6093ZM133.899 121.715C119.456 121.415 107.951 109.476 108.255 95.1009C108.554 80.7298 120.55 69.2787 134.998 69.5808C149.443 69.8808 160.944 81.8197 160.647 96.1951C160.343 110.568 148.347 122.017 133.899 121.715Z" fill="#73A0DA"/>
<path d="M21.9203 53.2177C21.9203 70.5326 36.074 84.6188 53.4766 84.6188C70.8792 84.6188 85.0308 70.5326 85.0308 53.2177C85.0308 35.9029 70.8749 21.8188 53.4766 21.8188C36.0783 21.8188 21.9203 35.9051 21.9203 53.2177ZM82.7752 53.2177C82.7752 69.2938 69.6343 82.3743 53.4766 82.3743C37.3189 82.3743 24.1737 69.2938 24.1737 53.2177C24.1737 37.1417 37.3146 24.0612 53.4766 24.0612C69.6387 24.0612 82.7752 37.1417 82.7752 53.2199V53.2177Z" fill="#27538C"/>
<path d="M108.255 95.0988C107.951 109.474 119.456 121.413 133.899 121.713C148.347 122.015 160.343 110.566 160.647 96.1929C160.944 81.8175 149.443 69.8786 134.998 69.5787C120.55 69.2765 108.554 80.7255 108.255 95.0988ZM159.558 96.1714C159.27 109.945 147.768 120.923 133.923 120.632C120.079 120.345 109.05 108.9 109.339 95.1225C109.627 81.3449 121.126 70.3729 134.972 70.6621C148.822 70.9512 159.851 82.3959 159.558 96.1714Z" fill="#27538C"/>
</g>
<defs>
<clipPath id="clip0_4_249">
<rect width="175" height="136" fill="white"/>
</clipPath>
</defs>
</svg>
