<svg width="760" height="630" viewBox="0 0 760 630" fill="none" xmlns="http://www.w3.org/2000/svg">
<g clip-path="url(#clip0_4_60)">
<path d="M695.755 532.043C679.653 555.147 660.453 578.715 637.562 595.576H153.586C47.1036 559.651 45.3539 374.72 126.849 324.973C131.815 321.943 137.137 319.541 142.614 317.575C157.623 312.179 235.564 278.574 348.689 130.424C385.468 82.2693 429.737 55.0524 474.973 43.1957C476.139 42.8954 477.306 42.5951 478.472 42.313C478.49 42.313 478.499 42.313 478.518 42.2948C479.648 42.0218 480.778 41.7488 481.917 41.5032C481.962 41.485 482.017 41.4759 482.072 41.4668C483.074 41.2393 484.076 41.0209 485.079 40.8116C485.325 40.757 485.562 40.7024 485.808 40.6569C488.077 40.1837 490.355 39.7469 492.642 39.3466C492.67 39.3466 492.697 39.3466 492.715 39.3284C493.745 39.1555 494.784 38.9826 495.814 38.8188C496.032 38.7733 496.251 38.746 496.46 38.7096C497.572 38.5367 498.675 38.3729 499.787 38.2091C499.787 38.2091 499.805 38.2091 499.814 38.2091C500.999 38.0453 502.183 37.8815 503.368 37.7359C506.494 37.3447 509.61 37.0171 512.736 36.7714C559.575 32.8222 608.055 43.1593 648.825 65.9355C654.448 69.0749 659.76 72.3962 664.791 75.8904L664.809 75.9086C692.238 94.9632 711.138 119.113 724.789 147.049C735.332 168.597 742.722 192.392 748.5 217.853C772.94 325.519 759.736 440.228 695.737 532.061L695.755 532.043Z" fill="#73A0DA"/>
<path d="M315.455 72.2783C312.056 118.268 280.681 163.411 252.203 196.551C223.024 230.493 178.91 270.067 132.408 286.855C126.448 289.012 120.452 290.786 114.437 292.133C78.9069 300.077 42.6475 290.204 17.1592 263.843C-4.00961 241.958 -4.82064 211.42 10.4796 185.759C26.035 159.698 53.9746 137.85 81.6954 126.011C98.6177 118.786 116.688 113.117 132.408 103.453C136.682 100.833 140.782 97.9209 144.646 94.5995C152.611 87.7384 159.828 80.1494 166.753 72.2874C174.955 62.9785 182.746 53.2692 190.866 43.8967C219.68 10.6104 255.694 -19.2817 296.518 15.6516C308.702 26.0797 314.452 41.2032 315.537 56.9C315.892 62.023 315.865 67.1643 315.473 72.2783H315.455Z" fill="#73A0DA"/>
<path d="M678.405 223.304H506.74V475.517H678.405V223.304Z" fill="#C0CEE2"/>
<path d="M455.307 194.604H173.998V475.507H455.307V194.604Z" fill="#C0CEE2"/>
<path d="M556.641 277.664H268.524V534.409H556.641V277.664Z" fill="white"/>
<path d="M556.641 277.664H268.524V316.174H556.641V277.664Z" fill="#353535"/>
<path d="M290.459 304.099C293.8 304.099 296.509 301.394 296.509 298.057C296.509 294.72 293.8 292.014 290.459 292.014C287.117 292.014 284.408 294.72 284.408 298.057C284.408 301.394 287.117 304.099 290.459 304.099Z" fill="#B9D5FA"/>
<path d="M312.01 304.099C315.352 304.099 318.061 301.394 318.061 298.057C318.061 294.72 315.352 292.014 312.01 292.014C308.668 292.014 305.959 294.72 305.959 298.057C305.959 301.394 308.668 304.099 312.01 304.099Z" fill="#B9D5FA"/>
<path d="M333.562 304.099C336.903 304.099 339.612 301.394 339.612 298.057C339.612 294.72 336.903 292.014 333.562 292.014C330.22 292.014 327.511 294.72 327.511 298.057C327.511 301.394 330.22 304.099 333.562 304.099Z" fill="#B9D5FA"/>
<path d="M426.858 359.597H296.127V452.631H426.858V359.597Z" fill="#C0CEE2"/>
<path d="M542.279 326.001H281.382V344.883H542.279V326.001Z" fill="#353535"/>
<path d="M425.354 474.361H310.124C308.037 474.361 306.342 472.668 306.342 470.585C306.342 468.501 308.037 466.808 310.124 466.808H425.354C427.441 466.808 429.136 468.501 429.136 470.585C429.136 472.668 427.441 474.361 425.354 474.361Z" fill="#73A0DA"/>
<path d="M425.764 497.21H310.534C308.447 497.21 306.752 495.517 306.752 493.434C306.752 491.35 308.447 489.657 310.534 489.657H425.764C427.851 489.657 429.546 491.35 429.546 493.434C429.546 495.517 427.851 497.21 425.764 497.21Z" fill="#73A0DA"/>
<path d="M425.764 520.068H310.534C308.447 520.068 306.752 518.375 306.752 516.292C306.752 514.208 308.447 512.515 310.534 512.515H425.764C427.851 512.515 429.546 514.208 429.546 516.292C429.546 518.375 427.851 520.068 425.764 520.068Z" fill="#73A0DA"/>
<path d="M526.778 359.224H449.266V405.286H526.778V359.224Z" fill="#C0CEE2"/>
<path d="M526.778 417.37H449.266V463.432H526.778V417.37Z" fill="#C0CEE2"/>
<path d="M526.778 475.516H449.266V521.579H526.778V475.516Z" fill="#C0CEE2"/>
<path d="M353.6 436.334V374.229C353.6 373.073 354.995 372.5 355.815 373.319L386.907 404.367C387.409 404.867 387.409 405.686 386.907 406.196L355.815 437.244C354.995 438.063 353.6 437.48 353.6 436.334Z" fill="#C0CEE2"/>
<path d="M349.062 436.334V374.229C349.062 373.073 350.457 372.5 351.277 373.319L382.369 404.367C382.871 404.867 382.871 405.686 382.369 406.196L351.277 437.244C350.457 438.063 349.062 437.48 349.062 436.334Z" fill="white"/>
<path d="M91.6556 489.239C94.7175 530.096 68.4455 532.061 65.3836 491.204C62.3218 450.347 65.7208 416.788 72.9745 416.242C80.2282 415.696 88.5937 448.382 91.6556 489.239Z" fill="#517F17"/>
<path d="M97.3602 546.247C101.825 573.901 104.304 596.504 102.892 596.732C101.479 596.959 96.7132 574.729 92.248 547.066C91.1909 540.542 96.1846 538.941 97.3602 546.238V546.247Z" fill="#353535"/>
<path d="M75.0614 546.247C70.5961 573.901 68.1175 596.504 69.5299 596.732C70.9424 596.959 75.7084 574.729 80.1736 547.066C81.2307 540.542 76.2369 538.941 75.0614 546.238V546.247Z" fill="#353535"/>
<path d="M101.479 492.605C91.5736 532.362 66.0124 526.01 75.918 486.254C85.8235 446.498 99.5745 415.687 106.637 417.434C113.699 419.19 111.385 452.84 101.479 492.605Z" fill="#51AB17"/>
<path d="M85.3405 501.405C85.2494 501.405 85.1674 501.396 85.0763 501.377C84.4657 501.232 84.0921 500.622 84.2379 500.013L100.012 433.85C100.158 433.24 100.768 432.867 101.379 433.012C101.989 433.158 102.363 433.768 102.217 434.377L86.4432 500.54C86.3156 501.059 85.8508 501.414 85.3405 501.414V501.405Z" fill="#98BF45"/>
<path d="M78.7338 502.697C78.1506 502.697 77.6585 502.251 77.6038 501.66L71.8355 433.895C71.7808 433.276 72.2456 432.721 72.8652 432.667C73.494 432.612 74.0408 433.076 74.0954 433.695L79.8638 501.459C79.9185 502.078 79.4537 502.633 78.834 502.688C78.7976 502.688 78.7703 502.688 78.7338 502.688V502.697Z" fill="#51AB17"/>
<path d="M104.359 502.269C85.6868 531.506 66.8235 519.577 85.4954 490.34C104.167 461.103 123.532 440.074 128.735 443.368C133.939 446.662 123.031 473.032 104.359 502.269Z" fill="#515F17"/>
<path d="M89.3045 505.236C89.1041 505.236 88.8945 505.181 88.7031 505.063C88.1746 504.735 88.0105 504.035 88.3386 503.507L118.839 454.669C119.167 454.142 119.869 453.978 120.406 454.305C120.944 454.633 121.099 455.334 120.771 455.861L90.2705 504.699C90.0518 505.045 89.6873 505.236 89.3045 505.236Z" fill="#517F17"/>
<path d="M66.2585 498.165C80.8115 529.65 101.115 520.377 86.5616 488.893C72.0086 457.408 55.6695 433.959 50.0652 436.516C44.4609 439.073 51.7055 466.681 66.2585 498.165Z" fill="#98BF45"/>
<path d="M80.93 503.143C80.4925 503.143 80.0825 502.897 79.8911 502.469L56.271 449.965C56.0158 449.392 56.271 448.727 56.8451 448.463C57.4192 448.209 58.0844 448.463 58.3487 449.037L81.9688 501.541C82.224 502.115 81.9688 502.779 81.3947 503.043C81.2398 503.106 81.0849 503.143 80.93 503.143Z" fill="#515F17"/>
<path d="M114.948 486.29C115.385 486.29 115.722 486.691 115.64 487.118L114.437 493.452L113.745 497.092L111.603 508.339L110.701 513.098L109.908 517.293L109.662 518.594L107.594 529.477L106.938 532.944L106.054 537.567L105.707 539.396L105.644 539.723L104.085 547.913C104.031 548.213 103.839 548.486 103.566 548.704C103.001 549.168 102.053 549.478 100.996 549.478H72.0906C71.0518 549.478 70.1223 549.187 69.5573 548.732C69.2566 548.504 69.0652 548.222 69.0014 547.922L66.9693 537.794L66.6686 536.311L65.9122 532.525L65.5204 530.56L64.9645 527.794L63.1966 518.976L62.9324 517.648L62.8139 517.038L62.0758 513.416L61.4197 510.149L60.4628 505.399L58.941 497.82L58.2029 494.18L57.6105 491.241L56.7904 487.137C56.6993 486.7 57.0364 486.299 57.483 486.299H114.966L114.948 486.29Z" fill="#4C4C4C"/>
<path d="M93.2776 515.536C93.2776 525.391 98.1803 534.118 105.689 539.414L105.625 539.741L104.076 547.922C104.012 548.222 103.83 548.495 103.557 548.723C92.0383 542.135 84.2743 529.741 84.2743 515.527C84.2743 503.798 89.5688 493.297 97.8978 486.29H114.948C115.385 486.29 115.722 486.682 115.64 487.118C102.828 490.231 93.2776 501.787 93.2776 515.527V515.536Z" fill="#353535"/>
<path d="M81.1213 496.418C81.1213 507.401 73.4484 516.61 63.1784 518.985L62.9141 517.657L62.7865 517.047L62.0575 513.425L61.4105 510.159C67.5525 508.612 72.118 503.034 72.118 496.427C72.118 492.46 70.4777 488.875 67.8441 486.299H78.7976C80.2829 489.357 81.1304 492.797 81.1304 496.427L81.1213 496.418Z" fill="#353535"/>
<path d="M79.7635 544.546C79.7635 546.266 79.5084 547.931 79.0254 549.496H72.0633C71.0244 549.496 70.0949 549.205 69.5299 548.75C70.3045 547.531 70.751 546.093 70.751 544.546C70.751 541.689 69.2292 539.195 66.9419 537.812L66.6412 536.329L65.8849 532.544L65.493 530.578L64.9371 527.803C73.2844 528.822 79.7635 535.929 79.7635 544.546Z" fill="#353535"/>
<path d="M650.793 436.179C655.368 497.21 616.128 500.14 611.554 439.109C606.979 378.078 612.055 327.949 622.89 327.139C633.725 326.329 646.219 375.148 650.784 436.179H650.793Z" fill="#517F17"/>
<path d="M659.314 521.324C665.984 562.627 669.684 596.395 667.579 596.732C665.474 597.069 658.348 563.864 651.677 522.552C650.101 512.807 657.555 510.413 659.314 521.324Z" fill="#353535"/>
<path d="M626.007 521.324C619.336 562.627 615.636 596.395 617.741 596.732C619.846 597.069 626.973 563.864 633.643 522.552C635.22 512.807 627.765 510.413 626.007 521.324Z" fill="#353535"/>
<path d="M665.465 441.202C650.666 500.586 612.483 491.104 627.282 431.711C642.081 372.327 662.622 326.302 673.165 328.922C683.708 331.543 680.264 381.809 665.465 441.202Z" fill="#51AB17"/>
<path d="M641.361 454.342C641.234 454.342 641.097 454.324 640.97 454.296C640.058 454.078 639.493 453.168 639.712 452.258L663.278 353.437C663.496 352.527 664.407 351.962 665.319 352.181C666.23 352.399 666.795 353.309 666.576 354.219L643.011 453.041C642.829 453.814 642.127 454.342 641.361 454.342Z" fill="#98BF45"/>
<path d="M631.483 456.28C630.609 456.28 629.87 455.616 629.798 454.733L621.186 353.509C621.104 352.581 621.797 351.762 622.735 351.68C623.665 351.598 624.485 352.29 624.567 353.218L633.178 454.442C633.26 455.37 632.568 456.189 631.629 456.271C631.584 456.271 631.529 456.271 631.483 456.271V456.28Z" fill="#51AB17"/>
<path d="M669.766 455.643C641.872 499.312 613.695 481.495 641.589 437.826C669.483 394.157 698.398 362.745 706.18 367.668C713.962 372.591 697.66 411.974 669.766 455.643Z" fill="#515F17"/>
<path d="M647.285 460.065C646.975 460.065 646.665 459.984 646.392 459.811C645.599 459.319 645.353 458.273 645.854 457.481L691.418 384.53C691.91 383.738 692.958 383.492 693.751 383.993C694.543 384.493 694.789 385.531 694.288 386.322L648.725 459.274C648.406 459.792 647.85 460.075 647.285 460.075V460.065Z" fill="#517F17"/>
<path d="M612.857 449.51C634.591 496.536 664.918 482.687 643.184 435.651C621.45 388.625 597.046 353.6 588.672 357.422C580.297 361.244 591.123 402.474 612.857 449.51Z" fill="#98BF45"/>
<path d="M634.773 456.944C634.126 456.944 633.506 456.571 633.224 455.943L597.949 377.523C597.566 376.668 597.949 375.667 598.796 375.285C599.653 374.902 600.655 375.285 601.038 376.131L636.313 454.551C636.696 455.406 636.313 456.407 635.466 456.79C635.238 456.89 635.001 456.935 634.773 456.935V456.944Z" fill="#515F17"/>
<path d="M685.576 431.775C686.233 431.775 686.734 432.375 686.606 433.021L684.802 442.485L683.763 447.927L680.565 464.724L679.216 471.84L678.022 478.101L677.648 480.048L674.55 496.3L673.566 501.478L672.245 508.384L671.725 511.114L671.634 511.605L669.31 523.835C669.219 524.281 668.946 524.691 668.527 525.027C667.688 525.728 666.267 526.174 664.681 526.174H621.505C619.956 526.174 618.562 525.746 617.723 525.055C617.277 524.709 616.994 524.299 616.894 523.835L613.85 508.712L613.404 506.491L612.274 500.841L611.691 497.901L610.852 493.761L608.21 480.585L607.809 478.601L607.626 477.691L606.533 472.277L605.558 467.4L604.127 460.302L601.858 448.973L600.764 443.531L599.881 439.145L598.65 433.012C598.523 432.366 599.015 431.757 599.68 431.757H685.54L685.576 431.775Z" fill="#4C4C4C"/>
<path d="M653.208 475.444C653.208 490.167 660.535 503.206 671.752 511.114L671.652 511.605L669.338 523.826C669.246 524.272 668.973 524.681 668.563 525.018C651.358 515.182 639.767 496.664 639.767 475.444C639.767 457.927 647.668 442.248 660.116 431.775H685.586C686.242 431.775 686.734 432.366 686.615 433.012C667.479 437.662 653.217 454.915 653.217 475.444H653.208Z" fill="#353535"/>
<path d="M635.056 446.898C635.056 463.305 623.601 477.054 608.255 480.603L607.854 478.619L607.672 477.7L606.578 472.286L605.603 467.409C614.78 465.097 621.596 456.771 621.596 446.898C621.596 440.974 619.145 435.615 615.217 431.775H631.574C633.798 436.343 635.056 441.475 635.056 446.898Z" fill="#353535"/>
<path d="M633.033 518.785C633.033 521.36 632.65 523.835 631.93 526.174H621.532C619.983 526.174 618.589 525.746 617.751 525.055C618.908 523.235 619.573 521.087 619.573 518.785C619.573 514.517 617.295 510.786 613.878 508.721L613.431 506.501L612.301 500.85L611.718 497.92L610.88 493.77C623.346 495.29 633.023 505.909 633.023 518.776L633.033 518.785Z" fill="#353535"/>
<path d="M192.488 438.208L214.076 521.579L208.034 606.905H189.125L180.805 529.877L147.644 448.846L192.488 438.208Z" fill="#353535"/>
<path d="M183.074 439.264L167.191 527.612L142.997 613.703H124.844L136.946 522.334L137.392 435.588L183.074 439.264Z" fill="#4C4C4C"/>
<path d="M205.009 374.329C205.009 374.329 214.841 391.7 217.867 393.966C220.892 396.232 258.701 418.135 258.701 418.135L251.894 426.442L207.278 409.071L184.587 386.413L205.009 374.329Z" fill="#ECCBAC"/>
<path d="M193.663 355.448C193.663 355.448 205.765 363 199.714 399.999C193.663 436.998 198.201 436.998 193.663 443.04C189.125 449.082 152.073 452.859 137.702 440.774C135.433 438.509 140.728 424.914 140.728 406.041C140.728 387.169 137.957 359.579 145.266 350.916C157.367 336.566 170.973 338.832 170.973 338.832L193.663 355.448Z" fill="#27538C"/>
<path d="M200.607 393.711L198.712 383.256L193.663 355.448C193.663 355.448 202.84 361.553 209.465 373.356C210.914 375.931 212.244 378.77 213.329 381.882C213.329 381.882 213.602 386.668 200.607 393.711Z" fill="#1E406D"/>
<path d="M200.607 393.711L198.712 383.256C203.232 379.561 206.895 376.022 209.465 373.356C210.914 375.931 212.244 378.77 213.329 381.882C213.329 381.882 213.602 386.668 200.607 393.711Z" fill="#1C375A"/>
<path d="M193.663 338.832V355.448C193.663 355.448 179.293 364.511 170.973 338.832L175.912 318.767L176.641 315.801L193.663 338.832Z" fill="#FFDBBA"/>
<path d="M193.663 338.832V352.609C183.421 346.548 178.372 331.206 175.912 318.767L176.641 315.801L193.663 338.832Z" fill="#ECCBAC"/>
<path d="M180.641 378.106C180.641 378.106 196.743 389.917 200.434 390.736C204.125 391.564 247.601 396.032 247.601 396.032L244.813 406.396L196.989 408.844L166.99 397.488L180.641 378.106Z" fill="#FFDBBA"/>
<path d="M185.343 374.329C182.318 386.413 164.922 403.02 164.922 403.02C164.922 403.02 161.113 400.991 156.438 396.641C153.048 393.484 149.202 389.107 146.013 383.392C138.449 369.798 145.366 360.016 153.576 358.469C161.195 357.04 171.82 363.701 178.636 368.833C182.646 371.845 185.334 374.329 185.334 374.329H185.343Z" fill="#1E406D"/>
<path d="M185.343 374.329C182.318 386.413 164.922 403.02 164.922 403.02C164.922 403.02 161.113 400.991 156.438 396.641C161.596 391.518 170.499 381.836 178.636 368.833C182.646 371.845 185.334 374.329 185.334 374.329H185.343Z" fill="#1C375A"/>
<path d="M246.207 397.16C246.207 397.16 249.342 394.03 259.366 394.658H270.647C270.647 394.658 277.537 399.662 259.366 399.035C259.366 399.035 261.872 415.932 244.33 405.295L246.207 397.16Z" fill="#FFDBBA"/>
<path d="M254.509 417.552C254.509 417.552 258.664 416.023 267.504 420.801L277.737 425.533C277.737 425.533 281.883 432.967 265.663 424.777C265.663 424.777 260.824 441.156 249.378 424.14L254.509 417.543V417.552Z" fill="#ECCBAC"/>
<path d="M141.712 613.703L125.564 613.739C124.27 615.504 119.896 622.284 123.377 628.853C126.876 629.236 139.671 630.337 148.829 629.909C154.324 629.654 158.506 629.136 158.625 626.751C158.944 620.409 141.712 613.703 141.712 613.703Z" fill="#27538C"/>
<path d="M205.993 606.905L189.845 606.942C188.551 608.707 184.177 615.486 187.658 622.056C191.157 622.438 203.952 623.539 213.11 623.112C218.605 622.857 222.788 622.338 222.906 619.954C223.225 613.612 205.993 606.905 205.993 606.905Z" fill="#27538C"/>
<path d="M219.762 316.483C225.813 317.266 228.948 311.997 230.205 306.774C232.976 295.236 231.627 277.473 218.532 272.905C216.955 272.35 215.315 271.777 213.629 271.695C212.199 271.631 210.239 271.768 209.665 273.333C206.376 271.577 202.63 270.53 198.958 270.021C192.88 269.193 186.647 270.13 181.234 273.078C177.643 275.035 174.162 277.846 171.702 281.131C154.114 302.433 174.973 327.321 174.973 327.321L177.333 311.005C177.333 311.005 219.553 316.456 219.771 316.483H219.762Z" fill="#353535"/>
<path d="M212.089 341.061C201.291 351.944 180.058 337.339 177.634 318.33C175.21 299.321 186.045 291.878 186.045 291.878L222.496 295.682C222.496 295.682 219.808 333.272 212.08 341.052L212.089 341.061Z" fill="#FFDBBA"/>
<path d="M178.144 311.069C182.226 311.069 185.535 307.765 185.535 303.689C185.535 299.613 182.226 296.309 178.144 296.309C174.063 296.309 170.754 299.613 170.754 303.689C170.754 307.765 174.063 311.069 178.144 311.069Z" fill="#FFDBBA"/>
<path d="M177.37 302.397C177.033 302.179 176.714 301.897 176.331 301.724C175.966 301.487 175.556 301.351 175.137 301.169C174.709 300.978 174.253 300.896 173.779 300.677C174.244 300.513 174.745 300.377 175.256 300.341C175.766 300.322 176.294 300.322 176.805 300.468C177.333 300.559 177.816 300.814 178.299 301.069C178.518 301.223 178.737 301.387 178.955 301.551C179.165 301.715 179.338 301.933 179.529 302.124C180.24 302.934 180.696 303.917 180.924 304.909C181.133 305.909 181.161 306.929 180.86 307.902C180.468 307.011 180.104 306.192 179.703 305.427C179.502 305.364 179.32 305.291 179.147 305.236C178.755 305.1 178.409 304.981 178.081 304.899C177.753 304.808 177.452 304.745 177.069 304.708C176.677 304.645 176.249 304.681 175.647 304.645C175.839 304.108 176.222 303.653 176.759 303.407C177.188 303.189 177.716 303.125 178.208 303.198C178.09 303.07 177.98 302.925 177.844 302.816C177.689 302.679 177.534 302.552 177.388 302.415L177.37 302.397Z" fill="#ECCBAC"/>
<path d="M227.399 288.457C227.399 288.457 223.271 308.576 193.991 310.141L198.402 302.852C198.402 302.852 188.296 301.032 182.236 309.586L181.06 297.765L182.837 282.606L227.399 288.466V288.457Z" fill="#353535"/>
</g>
<defs>
<clipPath id="clip0_4_60">
<rect width="760" height="630" fill="white"/>
</clipPath>
</defs>
</svg>
