<svg width="250" height="53" viewBox="0 0 250 53" fill="none" xmlns="http://www.w3.org/2000/svg">
<g filter="url(#filter0_d_4_238)">
<path fill-rule="evenodd" clip-rule="evenodd" d="M21.5 0C9.62588 0 0 9.62588 0 21.5C0 33.3741 9.62588 43 21.5 43H40.1154C39.9872 45.2 38.3846 49.88 33 51C38 50.6 48 48.44 48 43H227.5C239.374 43 249 33.3741 249 21.5C249 9.62588 239.374 0 227.5 0H21.5Z" fill="#F1F1F1"/>
</g>
<path d="M41.896 33.304C41.2347 33.304 40.4933 33.2773 39.672 33.224C38.8507 33.1813 38.024 33.1227 37.192 33.048C36.3707 32.984 35.6133 32.8987 34.92 32.792V9.896C35.6773 9.72533 36.5093 9.576 37.416 9.448C38.3227 9.30933 39.2453 9.20267 40.184 9.128C41.1227 9.05333 42.0293 9.016 42.904 9.016C45.3467 9.016 47.336 9.26133 48.872 9.752C50.4187 10.2427 51.5547 10.9893 52.28 11.992C53.0053 12.984 53.368 14.2213 53.368 15.704C53.368 16.5787 53.1973 17.3733 52.856 18.088C52.5253 18.8027 52.0507 19.4053 51.432 19.896C50.824 20.3867 50.104 20.7227 49.272 20.904L49.288 20.712C50.664 20.9253 51.7947 21.4907 52.68 22.408C53.5653 23.3147 54.008 24.6053 54.008 26.28C54.008 27.4 53.7893 28.3973 53.352 29.272C52.9253 30.136 52.2373 30.8667 51.288 31.464C50.3387 32.0613 49.0907 32.52 47.544 32.84C46.008 33.1493 44.1253 33.304 41.896 33.304ZM43.592 28.872C44.808 28.872 45.7627 28.7707 46.456 28.568C47.1493 28.3547 47.64 28.04 47.928 27.624C48.216 27.1973 48.36 26.664 48.36 26.024C48.36 25.032 48.056 24.312 47.448 23.864C46.84 23.416 45.816 23.192 44.376 23.192H40.296V18.632H43.864C44.792 18.632 45.528 18.536 46.072 18.344C46.6267 18.152 47.0213 17.8693 47.256 17.496C47.5013 17.112 47.624 16.6267 47.624 16.04C47.624 15.1333 47.336 14.4773 46.76 14.072C46.184 13.656 45.176 13.448 43.736 13.448C43.224 13.448 42.7333 13.4693 42.264 13.512C41.8053 13.5547 41.3573 13.6187 40.92 13.704V28.76C41.432 28.8027 41.896 28.8347 42.312 28.856C42.728 28.8667 43.1547 28.872 43.592 28.872ZM62.542 33.304C61.3473 33.304 60.2807 33.0693 59.342 32.6C58.414 32.12 57.6833 31.3627 57.15 30.328C56.6167 29.2827 56.35 27.9067 56.35 26.2V15.448H62.366V25.768C62.366 26.664 62.5473 27.2827 62.91 27.624C63.2727 27.9653 63.7473 28.136 64.334 28.136C64.6433 28.136 64.958 28.0933 65.278 28.008C65.598 27.9227 65.902 27.8 66.19 27.64C66.478 27.4693 66.7233 27.2667 66.926 27.032V15.448H72.958V33H67.998L67.598 31.288H67.358C66.718 31.9493 65.9873 32.4507 65.166 32.792C64.3553 33.1333 63.4807 33.304 62.542 33.304ZM83.6163 33.336C82.4216 33.336 81.1843 33.2507 79.9043 33.08C78.6349 32.9093 77.4563 32.6427 76.3683 32.28V7.144H82.3843V17.112H82.6723C83.1736 16.4827 83.7923 16.0027 84.5283 15.672C85.2749 15.3307 86.1336 15.16 87.1043 15.16C88.3309 15.16 89.4616 15.4693 90.4963 16.088C91.5416 16.7067 92.3789 17.656 93.0083 18.936C93.6376 20.216 93.9523 21.8587 93.9523 23.864C93.9523 26.9253 93.1043 29.272 91.4083 30.904C89.7123 32.5253 87.1149 33.336 83.6163 33.336ZM84.1443 28.824C85.4029 28.824 86.3416 28.4827 86.9603 27.8C87.5896 27.1173 87.9043 25.96 87.9043 24.328C87.9043 23.2187 87.7709 22.3547 87.5043 21.736C87.2483 21.1173 86.8803 20.6853 86.4003 20.44C85.9309 20.184 85.3709 20.056 84.7203 20.056C84.3149 20.056 83.9043 20.1147 83.4883 20.232C83.0829 20.3387 82.7149 20.5147 82.3843 20.76V28.616C82.6296 28.68 82.9016 28.7333 83.2003 28.776C83.4989 28.808 83.8136 28.824 84.1443 28.824ZM103.71 33.336C102.515 33.336 101.278 33.2507 99.998 33.08C98.7287 32.9093 97.55 32.6427 96.462 32.28V7.144H102.478V17.112H102.766C103.267 16.4827 103.886 16.0027 104.622 15.672C105.369 15.3307 106.227 15.16 107.198 15.16C108.425 15.16 109.555 15.4693 110.59 16.088C111.635 16.7067 112.473 17.656 113.102 18.936C113.731 20.216 114.046 21.8587 114.046 23.864C114.046 26.9253 113.198 29.272 111.502 30.904C109.806 32.5253 107.209 33.336 103.71 33.336ZM104.238 28.824C105.497 28.824 106.435 28.4827 107.054 27.8C107.683 27.1173 107.998 25.96 107.998 24.328C107.998 23.2187 107.865 22.3547 107.598 21.736C107.342 21.1173 106.974 20.6853 106.494 20.44C106.025 20.184 105.465 20.056 104.814 20.056C104.409 20.056 103.998 20.1147 103.582 20.232C103.177 20.3387 102.809 20.5147 102.478 20.76V28.616C102.723 28.68 102.995 28.7333 103.294 28.776C103.593 28.808 103.907 28.824 104.238 28.824ZM116.681 33V7.144H122.697V33H116.681ZM135.494 33.336C133.148 33.336 131.228 33.0213 129.734 32.392C128.241 31.752 127.137 30.76 126.422 29.416C125.718 28.072 125.366 26.3333 125.366 24.2C125.366 22.312 125.692 20.6907 126.342 19.336C127.004 17.9813 127.969 16.9467 129.238 16.232C130.508 15.5173 132.06 15.16 133.894 15.16C135.644 15.16 137.105 15.5227 138.278 16.248C139.452 16.9627 140.332 18.0133 140.918 19.4C141.516 20.776 141.814 22.4453 141.814 24.408V25.928H128.822V22.552H137.142L136.246 22.84C136.246 21.8587 136.161 21.08 135.99 20.504C135.82 19.9173 135.553 19.5067 135.19 19.272C134.828 19.0267 134.374 18.904 133.83 18.904C133.276 18.904 132.817 19.0267 132.454 19.272C132.092 19.5067 131.82 19.912 131.638 20.488C131.457 21.064 131.366 21.8427 131.366 22.824V25.288C131.366 26.1733 131.5 26.8773 131.766 27.4C132.044 27.912 132.54 28.28 133.254 28.504C133.98 28.728 135.014 28.84 136.358 28.84C137.052 28.84 137.777 28.7973 138.534 28.712C139.302 28.616 140.06 28.4933 140.806 28.344V32.792C139.846 32.984 138.934 33.1227 138.07 33.208C137.206 33.2933 136.348 33.336 135.494 33.336ZM156.769 33.32C154.689 33.32 152.844 33.0853 151.233 32.616C149.633 32.136 148.284 31.4053 147.185 30.424C146.086 29.432 145.254 28.1733 144.689 26.648C144.124 25.1227 143.841 23.3147 143.841 21.224C143.841 18.5573 144.348 16.3173 145.361 14.504C146.385 12.6907 147.878 11.32 149.841 10.392C151.804 9.464 154.198 9 157.025 9C157.921 9 158.79 9.04266 159.633 9.128C160.486 9.21333 161.313 9.34667 162.113 9.528V14.552C161.388 14.392 160.646 14.2693 159.889 14.184C159.142 14.0987 158.364 14.056 157.553 14.056C155.889 14.056 154.518 14.3013 153.441 14.792C152.364 15.272 151.564 16.0347 151.041 17.08C150.529 18.1253 150.273 19.4853 150.273 21.16C150.273 22.8667 150.529 24.2427 151.041 25.288C151.553 26.3227 152.332 27.08 153.377 27.56C154.433 28.0293 155.766 28.264 157.377 28.264C158.166 28.264 158.956 28.2053 159.745 28.088C160.545 27.96 161.334 27.7893 162.113 27.576V32.584C161.366 32.808 160.524 32.984 159.585 33.112C158.657 33.2507 157.718 33.32 156.769 33.32ZM164.681 33V7.144H170.697V17.144H170.985C171.539 16.504 172.206 16.0133 172.985 15.672C173.763 15.3307 174.643 15.16 175.625 15.16C176.702 15.16 177.678 15.4 178.553 15.88C179.438 16.3493 180.137 17.1067 180.649 18.152C181.171 19.1973 181.433 20.5787 181.433 22.296V33H175.401V22.728C175.401 21.8107 175.219 21.1813 174.857 20.84C174.494 20.4987 173.993 20.328 173.353 20.328C173.033 20.328 172.707 20.3707 172.377 20.456C172.057 20.5413 171.747 20.6693 171.449 20.84C171.161 21 170.91 21.1973 170.697 21.432V33H164.681ZM189.703 33.336C187.858 33.336 186.423 32.856 185.399 31.896C184.386 30.9253 183.879 29.6773 183.879 28.152C183.879 26.456 184.477 25.128 185.671 24.168C186.866 23.208 188.807 22.648 191.495 22.488L194.823 22.264L195.495 25.496L192.151 25.72C191.319 25.7733 190.717 25.96 190.343 26.28C189.97 26.5893 189.783 27.016 189.783 27.56C189.783 28.0827 189.949 28.488 190.279 28.776C190.621 29.064 191.106 29.208 191.735 29.208C192.098 29.208 192.471 29.1547 192.855 29.048C193.25 28.9413 193.613 28.7547 193.943 28.488V22.536C193.943 21.832 193.826 21.272 193.591 20.856C193.357 20.44 192.962 20.1413 192.407 19.96C191.853 19.7787 191.101 19.688 190.151 19.688C189.469 19.688 188.695 19.7467 187.831 19.864C186.978 19.9707 186.162 20.136 185.383 20.36V15.896C186.29 15.6507 187.271 15.4693 188.327 15.352C189.383 15.224 190.365 15.16 191.271 15.16C193.266 15.16 194.893 15.4053 196.151 15.896C197.41 16.376 198.333 17.1867 198.919 18.328C199.517 19.4587 199.815 20.9947 199.815 22.936V33H194.887L194.471 31.32H194.199C193.698 32.0347 193.053 32.552 192.263 32.872C191.485 33.1813 190.631 33.336 189.703 33.336ZM211.342 33.336C209.102 33.336 207.385 32.7813 206.19 31.672C204.996 30.5627 204.398 28.824 204.398 26.456V15.448L205.518 9.32H210.43V25.512C210.43 26.6107 210.628 27.368 211.022 27.784C211.417 28.2 212.089 28.408 213.038 28.408C213.294 28.408 213.561 28.392 213.838 28.36C214.116 28.328 214.43 28.2853 214.782 28.232V32.936C214.313 33.0427 213.769 33.1333 213.15 33.208C212.532 33.2933 211.929 33.336 211.342 33.336ZM201.71 20.136V15.448H214.734V20.136H201.71Z" fill="#262626"/>
<defs>
<filter id="filter0_d_4_238" x="0" y="0" width="250" height="53" filterUnits="userSpaceOnUse" color-interpolation-filters="sRGB">
<feFlood flood-opacity="0" result="BackgroundImageFix"/>
<feColorMatrix in="SourceAlpha" type="matrix" values="0 0 0 0 0 0 0 0 0 0 0 0 0 0 0 0 0 0 127 0" result="hardAlpha"/>
<feOffset dx="1" dy="2"/>
<feComposite in2="hardAlpha" operator="out"/>
<feColorMatrix type="matrix" values="0 0 0 0 0 0 0 0 0 0 0 0 0 0 0 0 0 0 0.25 0"/>
<feBlend mode="normal" in2="BackgroundImageFix" result="effect1_dropShadow_4_238"/>
<feBlend mode="normal" in="SourceGraphic" in2="effect1_dropShadow_4_238" result="shape"/>
</filter>
</defs>
</svg>
