<svg width="173" height="123" viewBox="0 0 173 123" fill="none" xmlns="http://www.w3.org/2000/svg">
<rect x="4" y="4" width="165" height="115" rx="28" stroke="#73A0DA" stroke-width="8"/>
<path d="M43.192 80V45.272C44.264 45.032 45.408 44.824 46.624 44.648C47.84 44.456 49.096 44.312 50.392 44.216C51.688 44.104 52.992 44.048 54.304 44.048C59.408 44.048 63.248 44.976 65.824 46.832C68.4 48.672 69.688 51.552 69.688 55.472C69.688 58 69.08 60.12 67.864 61.832C66.648 63.528 64.912 64.808 62.656 65.672C60.416 66.536 57.736 66.968 54.616 66.968C53.912 66.968 53.264 66.96 52.672 66.944C52.08 66.912 51.472 66.88 50.848 66.848V80H43.192ZM64.096 80L52.672 63.584H61.024L72.616 80H64.096ZM54.76 61.16C57.336 61.16 59.248 60.712 60.496 59.816C61.744 58.92 62.368 57.472 62.368 55.472C62.368 54.16 62.104 53.088 61.576 52.256C61.048 51.408 60.248 50.784 59.176 50.384C58.104 49.984 56.744 49.784 55.096 49.784C54.28 49.784 53.528 49.816 52.84 49.88C52.152 49.944 51.488 50.04 50.848 50.168V60.968C51.312 61 51.744 61.04 52.144 61.088C52.56 61.12 52.976 61.144 53.392 61.16C53.824 61.16 54.28 61.16 54.76 61.16ZM76.2858 80V44.48H101.222V50.72H83.9898V73.76H101.462V80H76.2858ZM80.9178 64.952V58.712H98.7738V64.952H80.9178ZM123.004 80.456C120.06 80.456 117.444 80.112 115.156 79.424C112.868 78.72 110.924 77.64 109.324 76.184C107.74 74.712 106.54 72.832 105.724 70.544C104.908 68.256 104.5 65.512 104.5 62.312C104.5 58.248 105.236 54.864 106.708 52.16C108.18 49.44 110.324 47.408 113.14 46.064C115.956 44.704 119.372 44.024 123.388 44.024C124.748 44.024 126.06 44.096 127.324 44.24C128.588 44.368 129.82 44.576 131.02 44.864V51.296C129.9 51.024 128.756 50.816 127.588 50.672C126.436 50.528 125.244 50.456 124.012 50.456C121.452 50.456 119.332 50.856 117.652 51.656C115.988 52.44 114.74 53.696 113.908 55.424C113.076 57.152 112.66 59.416 112.66 62.216C112.66 65.112 113.068 67.424 113.884 69.152C114.716 70.864 115.948 72.104 117.58 72.872C119.228 73.64 121.284 74.024 123.748 74.024C124.964 74.024 126.172 73.928 127.372 73.736C128.572 73.528 129.788 73.248 131.02 72.896V79.304C129.884 79.656 128.62 79.936 127.228 80.144C125.852 80.352 124.444 80.456 123.004 80.456Z" fill="#27538C"/>
<circle cx="141" cy="37" r="7" fill="#27538C"/>
</svg>
